<?xml version="1.0" standalone="no"?><!DOCTYPE svg PUBLIC "-//W3C//DTD SVG 1.1//EN" "http://www.w3.org/Graphics/SVG/1.1/DTD/svg11.dtd"><svg t="1693905540963" class="icon" viewBox="0 0 1024 1024" version="1.1" xmlns="http://www.w3.org/2000/svg" p-id="9921" xmlns:xlink="http://www.w3.org/1999/xlink" width="200" height="200"><path d="M0 0h1024v1024H0z" fill="#ffffff" fill-opacity="0" p-id="9922"></path><path d="M756.16 121.92l2.048 0.192 2.176 0.512 1.344 0.256 1.024 0.384 1.408 0.32 2.56 1.088 1.28 0.384 0.448 0.32 1.216 0.512 3.072 1.92 1.088 0.64 0.256 0.256 0.64 0.32 4.48 3.84 144 144a38.4 38.4 0 0 1-54.4 54.272L790.4 252.8V864a38.4 38.4 0 0 1-32.192 37.888l-6.208 0.512a38.4 38.4 0 0 1-38.4-38.4V252.672L635.136 331.136a38.4 38.4 0 0 1-48.96 4.48l-5.312-4.48a38.4 38.4 0 0 1 0-54.272l144-144 4.48-3.84 0.512-0.32 1.344-0.896 3.2-1.92 1.088-0.512 1.728-0.704 2.624-1.088 1.344-0.32 1.088-0.384 1.28-0.256 2.24-0.512 1.984-0.192 0.96-0.192 0.896 0.064 2.368-0.192 2.304 0.192h0.96l0.896 0.128zM272 121.6a38.4 38.4 0 0 1 38.4 38.4v611.2l78.464-78.336a38.4 38.4 0 0 1 48.96-4.48l5.312 4.48a38.4 38.4 0 0 1 0 54.272l-144 144a38.592 38.592 0 0 1-4.48 3.84l-0.576 0.32-1.344 0.896-3.072 1.92-1.216 0.512-1.728 0.704-2.56 1.088-1.408 0.32-1.024 0.384-1.344 0.256-2.176 0.512-2.048 0.192-0.896 0.192-0.96-0.064-2.304 0.192-2.368-0.192h-0.896l-0.96-0.128-1.984-0.192-2.24-0.512-1.28-0.256-1.088-0.384-1.28-0.32-2.688-1.088L256 898.944l-0.512-0.32-1.152-0.512-3.136-1.92-1.024-0.64-0.32-0.256-0.512-0.32a38.592 38.592 0 0 1-4.48-3.84l-144-144a38.4 38.4 0 0 1 54.272-54.272L233.6 771.2V160a38.4 38.4 0 0 1 32.192-37.888L272 121.6z" fill="#ffffff" p-id="9923"></path></svg>